<mxfile host="app.diagrams.net" modified="2021-03-17T13:11:08.595Z" agent="5.0 (Macintosh; Intel Mac OS X 10_15_7) AppleWebKit/605.1.15 (KHTML, like Gecko) Version/14.0.3 Safari/605.1.15" etag="YVX-UlMX2xkd39EcjAC9" version="14.4.8" type="github">
  <diagram id="R2lEEEUBdFMjLlhIrx00" name="Page-1">
    <mxGraphModel dx="1426" dy="842" grid="1" gridSize="10" guides="1" tooltips="1" connect="1" arrows="1" fold="1" page="1" pageScale="1" pageWidth="850" pageHeight="1100" math="0" shadow="0" extFonts="Permanent Marker^https://fonts.googleapis.com/css?family=Permanent+Marker">
      <root>
        <mxCell id="0" />
        <mxCell id="1" parent="0" />
        <mxCell id="tY7C9ax6lJk8ADkUyfrm-35" value="gets data" style="edgeStyle=orthogonalEdgeStyle;rounded=0;orthogonalLoop=1;jettySize=auto;html=1;entryX=0.5;entryY=0;entryDx=0;entryDy=0;" edge="1" parent="1" source="tY7C9ax6lJk8ADkUyfrm-16" target="tY7C9ax6lJk8ADkUyfrm-1">
          <mxGeometry relative="1" as="geometry">
            <Array as="points">
              <mxPoint x="420" y="670" />
            </Array>
          </mxGeometry>
        </mxCell>
        <mxCell id="tY7C9ax6lJk8ADkUyfrm-31" value="Data" style="group;labelBorderColor=#000000;strokeColor=#000000;strokeWidth=2;fontSize=20;" vertex="1" connectable="0" parent="1">
          <mxGeometry x="80" y="630" width="600" height="510" as="geometry" />
        </mxCell>
        <mxCell id="tY7C9ax6lJk8ADkUyfrm-1" value="ApiUtil" style="rounded=0;whiteSpace=wrap;html=1;" vertex="1" parent="tY7C9ax6lJk8ADkUyfrm-31">
          <mxGeometry x="192.4496226415094" y="50" width="135.8490566037736" height="78.46153846153847" as="geometry" />
        </mxCell>
        <mxCell id="tY7C9ax6lJk8ADkUyfrm-2" value="Mapper" style="rounded=0;whiteSpace=wrap;html=1;" vertex="1" parent="tY7C9ax6lJk8ADkUyfrm-31">
          <mxGeometry x="169.81132075471697" y="210" width="135.8490566037736" height="78.46153846153847" as="geometry" />
        </mxCell>
        <mxCell id="tY7C9ax6lJk8ADkUyfrm-11" style="edgeStyle=orthogonalEdgeStyle;rounded=0;orthogonalLoop=1;jettySize=auto;html=1;entryX=0.5;entryY=1;entryDx=0;entryDy=0;" edge="1" parent="tY7C9ax6lJk8ADkUyfrm-31" source="tY7C9ax6lJk8ADkUyfrm-3" target="tY7C9ax6lJk8ADkUyfrm-2">
          <mxGeometry relative="1" as="geometry" />
        </mxCell>
        <mxCell id="tY7C9ax6lJk8ADkUyfrm-3" value="Service" style="rounded=0;whiteSpace=wrap;html=1;" vertex="1" parent="tY7C9ax6lJk8ADkUyfrm-31">
          <mxGeometry x="192.45283018867923" y="340" width="135.8490566037736" height="78.46153846153847" as="geometry" />
        </mxCell>
        <mxCell id="tY7C9ax6lJk8ADkUyfrm-6" style="edgeStyle=orthogonalEdgeStyle;rounded=0;orthogonalLoop=1;jettySize=auto;html=1;entryX=0.5;entryY=1;entryDx=0;entryDy=0;" edge="1" parent="tY7C9ax6lJk8ADkUyfrm-31" source="tY7C9ax6lJk8ADkUyfrm-9" target="tY7C9ax6lJk8ADkUyfrm-3">
          <mxGeometry relative="1" as="geometry">
            <Array as="points">
              <mxPoint x="67.9245283018868" y="496.92307692307696" />
              <mxPoint x="260.37735849056605" y="496.92307692307696" />
            </Array>
          </mxGeometry>
        </mxCell>
        <mxCell id="tY7C9ax6lJk8ADkUyfrm-4" value="RequestBody" style="rounded=0;whiteSpace=wrap;html=1;" vertex="1" parent="tY7C9ax6lJk8ADkUyfrm-31">
          <mxGeometry y="340" width="135.8490566037736" height="78.46153846153847" as="geometry" />
        </mxCell>
        <mxCell id="tY7C9ax6lJk8ADkUyfrm-5" style="edgeStyle=orthogonalEdgeStyle;rounded=0;orthogonalLoop=1;jettySize=auto;html=1;entryX=0.5;entryY=0;entryDx=0;entryDy=0;" edge="1" parent="tY7C9ax6lJk8ADkUyfrm-31" source="tY7C9ax6lJk8ADkUyfrm-1" target="tY7C9ax6lJk8ADkUyfrm-4">
          <mxGeometry relative="1" as="geometry" />
        </mxCell>
        <mxCell id="tY7C9ax6lJk8ADkUyfrm-9" value="Dio" style="rounded=0;whiteSpace=wrap;html=1;" vertex="1" parent="tY7C9ax6lJk8ADkUyfrm-31">
          <mxGeometry x="113.20754716981132" y="483.8461538461539" width="79.24528301886792" height="26.153846153846153" as="geometry" />
        </mxCell>
        <mxCell id="tY7C9ax6lJk8ADkUyfrm-10" style="edgeStyle=orthogonalEdgeStyle;rounded=0;orthogonalLoop=1;jettySize=auto;html=1;entryX=0.5;entryY=1;entryDx=0;entryDy=0;" edge="1" parent="tY7C9ax6lJk8ADkUyfrm-31" source="tY7C9ax6lJk8ADkUyfrm-4" target="tY7C9ax6lJk8ADkUyfrm-9">
          <mxGeometry relative="1" as="geometry">
            <mxPoint x="67.9245283018868" y="418.46153846153845" as="sourcePoint" />
            <mxPoint x="260.37735849056605" y="418.46153846153845" as="targetPoint" />
            <Array as="points" />
          </mxGeometry>
        </mxCell>
        <mxCell id="tY7C9ax6lJk8ADkUyfrm-17" value="Local" style="rounded=0;whiteSpace=wrap;html=1;" vertex="1" parent="tY7C9ax6lJk8ADkUyfrm-31">
          <mxGeometry x="440.00094339622643" y="180" width="135.8490566037736" height="78.46153846153847" as="geometry" />
        </mxCell>
        <mxCell id="tY7C9ax6lJk8ADkUyfrm-21" style="edgeStyle=orthogonalEdgeStyle;rounded=0;orthogonalLoop=1;jettySize=auto;html=1;entryX=0.167;entryY=1.033;entryDx=0;entryDy=0;entryPerimeter=0;" edge="1" parent="tY7C9ax6lJk8ADkUyfrm-31" source="tY7C9ax6lJk8ADkUyfrm-18" target="tY7C9ax6lJk8ADkUyfrm-1">
          <mxGeometry relative="1" as="geometry" />
        </mxCell>
        <mxCell id="tY7C9ax6lJk8ADkUyfrm-18" value="Model From Domain" style="rounded=0;whiteSpace=wrap;html=1;direction=west;" vertex="1" parent="tY7C9ax6lJk8ADkUyfrm-31">
          <mxGeometry x="210.0032075471698" y="149.99692307692308" width="79.24528301886792" height="39.23076923076923" as="geometry" />
        </mxCell>
        <mxCell id="tY7C9ax6lJk8ADkUyfrm-19" style="edgeStyle=orthogonalEdgeStyle;rounded=0;orthogonalLoop=1;jettySize=auto;html=1;entryX=0.5;entryY=0;entryDx=0;entryDy=0;" edge="1" parent="tY7C9ax6lJk8ADkUyfrm-31" source="tY7C9ax6lJk8ADkUyfrm-2" target="tY7C9ax6lJk8ADkUyfrm-18">
          <mxGeometry relative="1" as="geometry" />
        </mxCell>
        <mxCell id="tY7C9ax6lJk8ADkUyfrm-27" style="edgeStyle=orthogonalEdgeStyle;rounded=0;orthogonalLoop=1;jettySize=auto;html=1;entryX=0.5;entryY=1;entryDx=0;entryDy=0;" edge="1" parent="tY7C9ax6lJk8ADkUyfrm-31" source="tY7C9ax6lJk8ADkUyfrm-23" target="tY7C9ax6lJk8ADkUyfrm-17">
          <mxGeometry relative="1" as="geometry" />
        </mxCell>
        <mxCell id="tY7C9ax6lJk8ADkUyfrm-23" value="Hive" style="shape=cylinder3;whiteSpace=wrap;html=1;boundedLbl=1;backgroundOutline=1;size=15;" vertex="1" parent="tY7C9ax6lJk8ADkUyfrm-31">
          <mxGeometry x="460.00245283018864" y="340" width="67.9245283018868" height="104.61538461538461" as="geometry" />
        </mxCell>
        <mxCell id="tY7C9ax6lJk8ADkUyfrm-38" style="edgeStyle=orthogonalEdgeStyle;rounded=0;orthogonalLoop=1;jettySize=auto;html=1;entryX=0.5;entryY=1;entryDx=0;entryDy=0;fontSize=20;" edge="1" parent="tY7C9ax6lJk8ADkUyfrm-31" source="tY7C9ax6lJk8ADkUyfrm-28" target="tY7C9ax6lJk8ADkUyfrm-37">
          <mxGeometry relative="1" as="geometry" />
        </mxCell>
        <mxCell id="tY7C9ax6lJk8ADkUyfrm-28" value="Model From Domain" style="rounded=0;whiteSpace=wrap;html=1;" vertex="1" parent="tY7C9ax6lJk8ADkUyfrm-31">
          <mxGeometry x="328.3018867924528" y="149.99923076923076" width="90.56603773584905" height="39.23076923076923" as="geometry" />
        </mxCell>
        <mxCell id="tY7C9ax6lJk8ADkUyfrm-30" style="edgeStyle=orthogonalEdgeStyle;rounded=0;orthogonalLoop=1;jettySize=auto;html=1;entryX=0.625;entryY=1.05;entryDx=0;entryDy=0;entryPerimeter=0;" edge="1" parent="tY7C9ax6lJk8ADkUyfrm-31" source="tY7C9ax6lJk8ADkUyfrm-17" target="tY7C9ax6lJk8ADkUyfrm-28">
          <mxGeometry relative="1" as="geometry">
            <mxPoint x="464.1509433962264" y="209.23076923076923" as="sourcePoint" />
            <mxPoint x="379.2452830188679" y="82.3846153846154" as="targetPoint" />
            <Array as="points">
              <mxPoint x="384.90566037735846" y="209.23076923076923" />
            </Array>
          </mxGeometry>
        </mxCell>
        <mxCell id="tY7C9ax6lJk8ADkUyfrm-25" style="edgeStyle=orthogonalEdgeStyle;rounded=0;orthogonalLoop=1;jettySize=auto;html=1;" edge="1" parent="tY7C9ax6lJk8ADkUyfrm-31" source="tY7C9ax6lJk8ADkUyfrm-17" target="tY7C9ax6lJk8ADkUyfrm-23">
          <mxGeometry relative="1" as="geometry" />
        </mxCell>
        <mxCell id="tY7C9ax6lJk8ADkUyfrm-37" value="&lt;font style=&quot;font-size: 14px&quot;&gt;Repository&lt;/font&gt;" style="rounded=0;whiteSpace=wrap;html=1;strokeColor=#000000;strokeWidth=2;fontSize=20;" vertex="1" parent="tY7C9ax6lJk8ADkUyfrm-31">
          <mxGeometry x="400" y="50" width="120" height="60" as="geometry" />
        </mxCell>
        <mxCell id="tY7C9ax6lJk8ADkUyfrm-32" style="edgeStyle=orthogonalEdgeStyle;rounded=0;orthogonalLoop=1;jettySize=auto;html=1;opacity=40;" edge="1" parent="1" source="tY7C9ax6lJk8ADkUyfrm-18" target="tY7C9ax6lJk8ADkUyfrm-14">
          <mxGeometry relative="1" as="geometry" />
        </mxCell>
        <mxCell id="tY7C9ax6lJk8ADkUyfrm-33" style="edgeStyle=orthogonalEdgeStyle;rounded=0;orthogonalLoop=1;jettySize=auto;html=1;entryX=0.5;entryY=1;entryDx=0;entryDy=0;opacity=40;" edge="1" parent="1" source="tY7C9ax6lJk8ADkUyfrm-28" target="tY7C9ax6lJk8ADkUyfrm-14">
          <mxGeometry relative="1" as="geometry" />
        </mxCell>
        <mxCell id="tY7C9ax6lJk8ADkUyfrm-34" value="Extends and overrides" style="edgeStyle=orthogonalEdgeStyle;rounded=0;orthogonalLoop=1;jettySize=auto;html=1;entryX=0.5;entryY=1;entryDx=0;entryDy=0;" edge="1" parent="1" source="tY7C9ax6lJk8ADkUyfrm-1" target="tY7C9ax6lJk8ADkUyfrm-16">
          <mxGeometry x="-0.5714" y="10" relative="1" as="geometry">
            <Array as="points">
              <mxPoint x="340" y="450" />
              <mxPoint x="400" y="450" />
            </Array>
            <mxPoint as="offset" />
          </mxGeometry>
        </mxCell>
        <mxCell id="tY7C9ax6lJk8ADkUyfrm-36" value="Domain" style="group;fontSize=20;strokeColor=#000000;" vertex="1" connectable="0" parent="1">
          <mxGeometry x="50" y="90" width="660" height="430" as="geometry" />
        </mxCell>
        <mxCell id="tY7C9ax6lJk8ADkUyfrm-14" value="Business-Logic Models" style="rounded=0;whiteSpace=wrap;html=1;" vertex="1" parent="tY7C9ax6lJk8ADkUyfrm-36">
          <mxGeometry x="31.932442396313366" y="179.16666666666663" width="169.71428571428572" height="143.33333333333331" as="geometry" />
        </mxCell>
        <mxCell id="tY7C9ax6lJk8ADkUyfrm-16" value="Api Util" style="rounded=0;whiteSpace=wrap;html=1;" vertex="1" parent="tY7C9ax6lJk8ADkUyfrm-36">
          <mxGeometry x="276.7741935483871" y="268.75" width="122.73870967741935" height="95.54062499999999" as="geometry" />
        </mxCell>
        <mxCell id="tY7C9ax6lJk8ADkUyfrm-39" value="&lt;font style=&quot;font-size: 14px&quot;&gt;___ Repository&lt;/font&gt;" style="rounded=0;whiteSpace=wrap;html=1;strokeColor=#000000;strokeWidth=2;fontSize=20;" vertex="1" parent="tY7C9ax6lJk8ADkUyfrm-36">
          <mxGeometry x="457.7419354838709" y="268.74452546296294" width="127.74193548387096" height="95.55555555555556" as="geometry" />
        </mxCell>
        <mxCell id="tY7C9ax6lJk8ADkUyfrm-42" style="edgeStyle=orthogonalEdgeStyle;rounded=0;orthogonalLoop=1;jettySize=auto;html=1;fontSize=20;" edge="1" parent="tY7C9ax6lJk8ADkUyfrm-36" source="tY7C9ax6lJk8ADkUyfrm-15" target="tY7C9ax6lJk8ADkUyfrm-16">
          <mxGeometry relative="1" as="geometry" />
        </mxCell>
        <mxCell id="tY7C9ax6lJk8ADkUyfrm-43" style="edgeStyle=orthogonalEdgeStyle;rounded=0;orthogonalLoop=1;jettySize=auto;html=1;fontSize=20;" edge="1" parent="tY7C9ax6lJk8ADkUyfrm-36" source="tY7C9ax6lJk8ADkUyfrm-15" target="tY7C9ax6lJk8ADkUyfrm-39">
          <mxGeometry relative="1" as="geometry" />
        </mxCell>
        <mxCell id="tY7C9ax6lJk8ADkUyfrm-15" value="Home Module" style="rounded=0;whiteSpace=wrap;html=1;" vertex="1" parent="tY7C9ax6lJk8ADkUyfrm-36">
          <mxGeometry x="360" y="160" width="142.74" height="45.55" as="geometry" />
        </mxCell>
        <mxCell id="tY7C9ax6lJk8ADkUyfrm-45" value="" style="rounded=0;whiteSpace=wrap;html=1;strokeColor=#000000;strokeWidth=2;fontSize=20;" vertex="1" parent="tY7C9ax6lJk8ADkUyfrm-36">
          <mxGeometry x="360" y="60" width="140" height="40" as="geometry" />
        </mxCell>
        <mxCell id="tY7C9ax6lJk8ADkUyfrm-40" style="edgeStyle=orthogonalEdgeStyle;rounded=0;orthogonalLoop=1;jettySize=auto;html=1;entryX=0.25;entryY=1;entryDx=0;entryDy=0;fontSize=20;" edge="1" parent="1" source="tY7C9ax6lJk8ADkUyfrm-37" target="tY7C9ax6lJk8ADkUyfrm-39">
          <mxGeometry relative="1" as="geometry" />
        </mxCell>
        <mxCell id="tY7C9ax6lJk8ADkUyfrm-41" style="edgeStyle=orthogonalEdgeStyle;rounded=0;orthogonalLoop=1;jettySize=auto;html=1;entryX=0.75;entryY=0;entryDx=0;entryDy=0;fontSize=20;" edge="1" parent="1" source="tY7C9ax6lJk8ADkUyfrm-39" target="tY7C9ax6lJk8ADkUyfrm-37">
          <mxGeometry relative="1" as="geometry" />
        </mxCell>
      </root>
    </mxGraphModel>
  </diagram>
</mxfile>
